<svg width="37" height="35" viewBox="0 0 37 35" fill="none" xmlns="http://www.w3.org/2000/svg">
<path d="M18.15 4.60606C13.8625 4.60606 5.2875 6.7697 5.2875 15.4242V22.6364L1 26.2424H35.3L31.0125 22.6364V15.4242C31.0125 11.8182 28.44 4.60606 18.15 4.60606ZM18.15 4.60606V1V4.60606ZM11.7188 28.0455C11.7188 29.8485 13.005 33.4545 18.15 33.4545C23.295 33.4545 24.5812 29.8485 24.5812 28.0455" fill="white"/>
<path d="M18.15 4.60606C13.8625 4.60606 5.2875 6.7697 5.2875 15.4242V22.6364L1 26.2424H35.3L31.0125 22.6364V15.4242C31.0125 11.8182 28.44 4.60606 18.15 4.60606ZM18.15 4.60606V1M11.7187 28.0455C11.7187 29.8485 13.005 33.4545 18.15 33.4545C23.295 33.4545 24.5812 29.8485 24.5812 28.0455" stroke="white" stroke-width="2" stroke-linecap="round" stroke-linejoin="round"/>
</svg>
