<svg width="32" height="32" viewBox="0 0 32 32" fill="none" xmlns="http://www.w3.org/2000/svg">
<path d="M31 31L23.4064 23.4064M23.4064 23.4064C24.6252 22.1876 25.592 20.7407 26.2516 19.1482C26.9113 17.5558 27.2508 15.849 27.2508 14.1254C27.2508 12.4017 26.9113 10.695 26.2516 9.10251C25.592 7.51007 24.6252 6.06314 23.4064 4.84433C22.1876 3.62553 20.7407 2.65872 19.1482 1.99911C17.5558 1.3395 15.849 1 14.1254 1C12.4017 1 10.695 1.3395 9.10251 1.99911C7.51007 2.65872 6.06314 3.62553 4.84433 4.84433C2.38285 7.30582 1 10.6443 1 14.1254C1 17.6064 2.38285 20.9449 4.84433 23.4064C7.30582 25.8679 10.6443 27.2508 14.1254 27.2508C17.6064 27.2508 20.9449 25.8679 23.4064 23.4064Z" stroke="#C7C7C7" stroke-width="2" stroke-linecap="round" stroke-linejoin="round"/>
</svg>
